HIERARCHY
ROOT Hips
{
	OFFSET 0.000000 0.000000 0.000000 
	CHANNELS 6 Xposition Yposition Zposition Yrotation Zrotation Xrotation 
	JOINT Lumbar
	{
		OFFSET 0.000000 0.000000 0.000000 
		CHANNELS 3 Zrotation Xrotation Yrotation
		JOINT Neck
		{
			OFFSET 0.000000 0.445665 0.000000 
			CHANNELS 3 Zrotation Xrotation Yrotation
			End Site
			{
				OFFSET 0.000000 0.227535 0.000000 
			}
		}
		JOINT RightShoulder
		{
			OFFSET 0.019635 0.377685 0.194865 
			CHANNELS 3 Zrotation Xrotation Yrotation
			JOINT RightElbow
			{
				OFFSET 0.000000 -0.243375 0.000000 
				CHANNELS 2 Zrotation Yrotation
				JOINT RightWrist
				{
					OFFSET 0.000000 -0.264825 0.000000 
					CHANNELS 2 Zrotation Xrotation
					End Site
					{
						OFFSET 0.006600 -0.176220 0.000990 
					}
				}
			}
		}
		JOINT LeftShoulder
		{
			OFFSET 0.019635 0.377685 -0.194865 
			CHANNELS 3 Zrotation Xrotation Yrotation
			JOINT LeftElbow
			{
				OFFSET 0.000000 -0.243375 0.000000 
				CHANNELS 2 Zrotation Yrotation
				JOINT LeftWrist
				{
					OFFSET 0.000000 -0.264825 0.000000 
					CHANNELS 2 Zrotation Xrotation
					End Site
					{
						OFFSET 0.006600 -0.176220 -0.000990 
					}
				}
			}
		}
	}
	JOINT RightHip
	{
		OFFSET 0.052140 -0.069960 0.075570 
		CHANNELS 3 Zrotation Xrotation Yrotation
		JOINT RightKnee
		{
			OFFSET 0.000000 -0.402270 0.000000 
			CHANNELS 1 Zrotation
			JOINT RightAnkle
			{
				OFFSET 0.000000 -0.404085 0.000000 
				CHANNELS 3 Zrotation Xrotation Yrotation
				End Site
				{
					OFFSET 0.204105 -0.089430 0.008415 
				}
			}
		}
	}
	JOINT LeftHip
	{
		OFFSET 0.052140 -0.069960 -0.075570 
		CHANNELS 3 Zrotation Xrotation Yrotation
		JOINT LeftKnee
		{
			OFFSET 0.000000 -0.402270 0.000000 
			CHANNELS 1 Zrotation
			JOINT LeftAnkle
			{
				OFFSET 0.000000 -0.404085 0.000000 
				CHANNELS 3 Zrotation Xrotation Yrotation
				End Site
				{
					OFFSET 0.204105 -0.089430 -0.008415 
				}
			}
		}
	}
}
MOTION
Frames: 14
Frame Time: 0.02
-0.31313 -0.36606 0.247 28.38146 11.38923 -4.12241 15.77956 3.67938 -0.02287 -0.7936 0.58173 -2.11994 35.326 0.1195 11.43841 128.82544 89.50373 12.38423 3.41741 36.43647 -1.44998 -9.26671 133.90557 -110.37209 16.5875 -3.62897 75.20874 -0.58796 -12.8193 -92.51181 -9.09868 -3.15437 -3.90007 107.64687 -2.38044 25.00443 -69.6523 -15.02819 1.94446 3.58162
-0.31391 -0.36678 0.24668 28.59276 11.35252 -4.17288 16.17799 3.69918 -0.20205 -0.70329 0.4452 -2.11994 35.7267 -0.07237 11.18606 128.83454 91.41093 12.60537 3.08591 36.7288 -1.69492 -9.10174 133.67624 -110.42128 16.67476 -3.69365 76.02412 -1.39155 -12.40841 -93.4648 -9.11347 -3.20649 -3.92616 107.58068 -1.91018 24.15606 -68.68882 -15.08318 1.94805 3.58564
-0.31457 -0.36729 0.24612 28.83619 11.23002 -4.2493 16.65178 3.72691 -0.36564 -0.57306 0.31963 -2.11994 36.28516 -0.26911 10.90177 128.7705 93.83587 12.90511 2.64479 37.10183 -1.95935 -8.91629 133.37765 -110.46038 16.76354 -3.74008 77.01667 -2.33189 -11.94325 -94.48034 -9.18018 -3.21151 -3.93124 107.3569 -1.43004 23.29397 -67.79456 -15.07395 1.91747 3.56905
-0.31526 -0.36788 0.24566 29.062 11.14334 -4.31367 17.09323 3.74853 -0.53134 -0.46161 0.19477 -2.11994 36.7643 -0.46031 10.63342 128.74143 95.95405 13.16058 2.27118 37.43995 -2.2029 -8.74418 133.11379 -110.50052 16.84892 -3.79266 77.93059 -3.2037 -11.48867 -95.45575 -9.22401 -3.23805 -3.94598 107.2006 -0.9613 22.39403 -66.90955 -15.09714 1.90262 3.5621
-0.31604 -0.36852 0.24522 29.3018 11.06639 -4.3798 17.53028 3.7811 -0.72111 -0.34519 0.04499 -2.11994 37.27642 -0.66675 10.35726 128.70672 98.37471 13.45102 1.82195 37.77482 -2.49923 -8.5544 132.83377 -110.54516 16.9448 -3.85368 78.84449 -4.10526 -11.09008 -96.48482 -9.26519 -3.26527 -3.96084 107.06329 -0.46339 21.67625 -65.84766 -15.10687 1.88854 3.55484
-0.31659 -0.36902 0.2447 29.51954 10.94922 -4.44852 17.99383 3.79253 -0.85575 -0.22993 -0.04959 -2.11994 37.75687 -0.84175 10.09091 128.66627 100.29041 13.68809 1.50481 38.13438 -2.69008 -8.39708 132.57182 -110.58423 17.01972 -3.89308 79.79786 -4.9763 -10.56493 -97.41739 -9.32308 -3.27957 -3.97023 106.84874 -0.02288 20.57993 -65.18024 -15.12812 1.86424 3.54302
-0.31656 -0.36921 0.24404 29.66915 10.75372 -4.51379 18.50159 3.74471 -0.84328 -0.13437 0.00134 -2.11994 38.11349 -0.93364 9.85434 128.62116 100.65691 13.75406 1.57546 38.53784 -2.57769 -8.33101 132.37793 -110.58286 17.0341 -3.87643 80.81188 -5.72882 -9.68417 -98.04445 -9.4268 -3.26799 -3.96944 106.45575 0.2437 18.40981 -65.49252 -15.21164 1.81847 3.52352
-0.31629 -0.36927 0.24331 29.79506 10.51894 -4.58144 19.03461 3.67519 -0.77516 -0.04026 0.10826 -2.11994 38.43268 -0.9928 9.63005 128.57365 100.50336 13.76469 1.7831 38.96354 -2.35957 -8.29897 132.20489 -110.5821 17.0279 -3.83893 81.85926 -6.44543 -8.6822 -98.57684 -9.54334 -3.24509 -3.96379 105.99127 0.45409 15.86583 -66.21732 -15.3064 1.76368 3.50005
-0.31609 -0.36938 0.24261 29.93137 10.29543 -4.65062 19.56246 3.61476 -0.73131 0.05813 0.19244 -2.11994 38.76693 -1.06349 9.40352 128.53141 100.60432 13.8035 1.93126 39.3814 -2.19404 -8.25366 132.02166 -110.60074 17.03272 -3.81151 82.89338 -7.1789 -7.74815 -99.16581 -9.646 -3.22844 -3.96049 105.56122 0.69898 13.51337 -66.81197 -15.38651 1.71379 3.47834
-0.31606 -0.36955 0.24192 30.07082 10.09766 -4.70962 20.06685 3.55751 -0.69147 0.14155 0.26572 -2.11994 39.1133 -1.14805 9.16112 128.46931 100.64164 13.83159 2.06605 39.79262 -2.00955 -8.19847 131.83838 -110.53743 17.03044 -3.78065 83.9257 -7.91586 -6.75624 -99.6953 -9.78447 -3.20585 -3.95604 105.11596 0.90777 11.06696 -67.16232 -15.50457 1.65924 3.45604
-0.31562 -0.36955 0.2412 30.19715 9.83677 -4.79017 20.62455 3.48885 -0.63004 0.25669 0.37469 -2.11994 39.42555 -1.19642 8.95587 128.44859 100.68761 13.86866 2.2599 40.22183 -1.83985 -8.17204 131.66181 -110.64307 17.03818 -3.75256 84.96752 -8.63402 -5.85895 -100.33107 -9.8507 -3.19314 -3.95288 104.6894 1.17658 8.73038 -68.12457 -15.54719 1.61287 3.4344
-0.31407 -0.36914 0.24045 30.29734 9.42259 -4.92841 21.32725 3.38982 -0.52466 0.44751 0.56997 -2.11994 39.63422 -1.14806 8.84396 128.54589 100.82501 13.93657 2.60812 40.69554 -1.73067 -8.21837 131.49275 -111.23263 17.07722 -3.73435 86.02415 -9.31818 -5.23409 -101.23331 -9.71429 -3.21408 -3.95626 104.31621 1.63882 6.76544 -70.62343 -15.37763 1.58971 3.41473
-0.31211 -0.36857 0.23968 30.38416 8.94439 -5.08828 22.08136 3.28071 -0.39942 0.67241 0.79886 -2.11994 39.8125 -1.06518 8.77037 128.68446 100.99582 14.01624 3.00729 41.18626 -1.64095 -8.29233 131.33116 -111.98868 17.12721 -3.7202 87.0884 -9.98194 -4.71209 -102.25419 -9.50456 -3.2448 -3.96082 103.96826 2.16042 4.92859 -73.73242 -15.13188 1.57555 3.39609
-0.31036 -0.36806 0.2389 30.47414 8.48866 -5.23903 22.80919 3.17901 -0.28169 0.88952 1.01142 -2.11994 40.01607 -1.00135 8.68347 128.80271 101.19007 14.09531 3.36702 41.66847 -1.54644 -8.35254 131.17041 -112.65748 17.17316 -3.70629 88.15104 -10.64874 -4.15577 -103.25406 -9.32803 -3.26904 -3.96381 103.61963 2.64607 3.04794 -76.597 -14.92259 1.55849 3.37768
